<?xml version="1.0" encoding="utf-8"?>
<!-- Generator: Adobe Illustrator 24.0.2, SVG Export Plug-In . SVG Version: 6.00 Build 0)  -->
<svg version="1.0" id="Layer_1" xmlns="http://www.w3.org/2000/svg" xmlns:xlink="http://www.w3.org/1999/xlink" x="0px" y="0px"
	 viewBox="0 0 300 280" enable-background="new 0 0 300 280" xml:space="preserve">
<g>
	<path fill="none" stroke="#33449B" stroke-width="2" stroke-miterlimit="10" d="M239.22,129.59c0.99-1.12,0.94-2.82-0.1-3.9
		c-8.66-9.06-50.79-45.44-154.05-25.39c0,0-10.26,2.04-13.3,10.71v31.85c0,0,1.9,12.54,18.24,14.44
		C90.01,157.3,195.93,178.41,239.22,129.59z"/>
	<g>
		<path fill="#E82826" d="M101.93,141.62c0,0.86,0.13,1.44,0.39,1.74c0.26,0.3,0.93,0.58,2,0.84c0.99,0.22,1.48,0.75,1.48,1.61
			c0,0.43-0.14,0.8-0.42,1.1c-0.28,0.3-0.64,0.49-1.07,0.58c-0.26,0.09-0.5,0.13-0.71,0.13c-0.22,0-0.75,0-1.61,0H87.8
			c-0.73,0-1.18,0-1.36,0c-0.17,0-0.39-0.04-0.65-0.13c-0.82-0.22-1.23-0.75-1.23-1.61c0-0.82,0.43-1.36,1.29-1.61
			c0.86-0.3,1.4-0.57,1.61-0.81c0.22-0.24,0.32-0.76,0.32-1.58v-31.57c0-0.82-0.11-1.35-0.32-1.58c-0.22-0.24-0.75-0.5-1.61-0.81
			c-0.86-0.26-1.29-0.8-1.29-1.61c0-0.86,0.41-1.4,1.23-1.61c0.26-0.09,0.47-0.13,0.65-0.13c0.17,0,0.62,0,1.36,0h14.14V141.62z
			 M104.32,104.56c1.59,0,2.94,0.02,4.04,0.07c1.1,0.04,2.03,0.11,2.81,0.19c0.78,0.09,1.44,0.2,2,0.35
			c0.56,0.15,1.14,0.36,1.74,0.61c4.52,1.81,6.78,5.1,6.78,9.88c0,1.64-0.3,3.13-0.9,4.49c-0.6,1.36-1.46,2.46-2.58,3.33
			c-0.39,0.35-0.79,0.64-1.19,0.87c-0.41,0.24-0.87,0.47-1.39,0.71c-0.52,0.24-1.11,0.47-1.78,0.71c-0.67,0.24-1.47,0.48-2.42,0.74
			c1.76,0.3,3.1,0.58,4,0.84c0.9,0.26,1.79,0.65,2.65,1.16c1.08,0.6,1.91,1.41,2.52,2.42c0.6,1.01,0.9,2.08,0.9,3.2v6.52
			c0,0.65,0.22,0.97,0.65,0.97c0.22,0,0.52-0.22,0.9-0.65c0.56-0.69,1.12-1.03,1.68-1.03c0.34,0,0.69,0.19,1.03,0.58
			c0.34,0.39,0.52,0.75,0.52,1.1c0,0.39-0.12,0.83-0.36,1.32c-0.24,0.5-0.55,1-0.94,1.52c-0.39,0.52-0.83,1.01-1.32,1.48
			c-0.49,0.47-1,0.88-1.52,1.23c-1.42,0.86-3.25,1.29-5.49,1.29c-2.8,0-4.97-0.8-6.52-2.39c-1.55-1.59-2.32-3.81-2.32-6.65v-5.29
			c0-1.81-0.27-3.14-0.81-4c-0.54-0.86-1.43-1.36-2.68-1.49v-3.42c1.25-0.17,2.14-0.58,2.68-1.23c0.54-0.65,0.81-1.68,0.81-3.1
			v-8.33c0-1.33-0.24-2.31-0.71-2.94c-0.47-0.62-1.4-1.15-2.78-1.58V104.56z"/>
		<path fill="#E82826" d="M147.06,107.53c-2.41,0.39-3.62,2.22-3.62,5.49v26.08c0,1.2,0.05,2.04,0.16,2.52
			c0.11,0.47,0.36,0.99,0.74,1.55c0.34,0.47,0.71,0.82,1.1,1.03c0.39,0.22,0.93,0.35,1.61,0.39v3.87c-2.93-0.04-5.54-0.58-7.84-1.61
			c-2.3-1.03-4.26-2.48-5.88-4.33c-1.61-1.85-2.84-4.1-3.68-6.75c-0.84-2.65-1.26-5.63-1.26-8.94c0-4.17,0.66-7.85,1.97-11.04
			c1.31-3.18,3.26-5.85,5.84-8c1.68-1.38,3.41-2.39,5.2-3.03c1.79-0.65,3.67-0.99,5.65-1.03V107.53z M149.58,103.79
			c0.47,0.09,0.89,0.16,1.26,0.23c0.37,0.06,0.76,0.15,1.19,0.26c0.43,0.11,0.91,0.26,1.45,0.45c0.54,0.19,1.21,0.44,2.03,0.74
			c0.6,0.22,1.07,0.37,1.39,0.45c0.32,0.09,0.59,0.13,0.81,0.13c0.34,0,0.63-0.1,0.87-0.29c0.24-0.19,0.53-0.63,0.87-1.32
			c0.3-0.47,0.77-0.71,1.42-0.71c1.16,0,1.74,0.67,1.74,2v13.11c0,1.59-0.62,2.39-1.87,2.39c-0.9,0-1.55-0.69-1.94-2.07
			c-0.39-1.59-0.9-3.07-1.55-4.42c-0.65-1.36-1.38-2.55-2.2-3.58c-0.82-1.03-1.7-1.87-2.65-2.52c-0.95-0.65-1.89-1.01-2.84-1.1
			V103.79z M149.64,144.59c2.28-0.22,4.26-1.01,5.94-2.39c1.68-1.38,2.84-3.12,3.49-5.23c0.22-0.69,0.46-1.17,0.74-1.45
			c0.28-0.28,0.66-0.42,1.13-0.42c0.47,0,0.88,0.18,1.23,0.55c0.34,0.37,0.52,0.83,0.52,1.39c0,1.12-0.43,2.41-1.29,3.87
			c-0.86,1.46-1.94,2.8-3.23,4c-1.33,1.21-2.67,2.08-4,2.62c-1.33,0.54-2.84,0.85-4.52,0.94V144.59z"/>
		<path fill="#E82826" d="M170.63,147.62c-0.73,0-1.18,0-1.36,0c-0.17,0-0.39-0.04-0.65-0.13c-0.82-0.22-1.23-0.75-1.23-1.61
			c0-0.82,0.43-1.36,1.29-1.61c0.86-0.3,1.4-0.57,1.61-0.81c0.22-0.24,0.32-0.76,0.32-1.58v-31.57c0-0.82-0.11-1.35-0.32-1.58
			c-0.22-0.24-0.75-0.5-1.61-0.81c-0.86-0.26-1.29-0.8-1.29-1.61c0-0.86,0.41-1.4,1.23-1.61c0.26-0.09,0.47-0.13,0.65-0.13
			c0.17,0,0.62,0,1.36,0h14.2c0.86,0,1.4,0,1.61,0c0.22,0,0.45,0.04,0.71,0.13c0.43,0.09,0.78,0.28,1.07,0.58
			c0.28,0.3,0.42,0.67,0.42,1.1c0,0.86-0.5,1.4-1.49,1.61c-1.08,0.26-1.74,0.54-2,0.84c-0.26,0.3-0.39,0.88-0.39,1.74v37.06H170.63z
			 M187.09,144.14c2.07-0.3,3.77-1.13,5.1-2.49c1.33-1.36,2.45-3.39,3.36-6.1c0.34-1.16,0.66-1.93,0.94-2.29
			c0.28-0.36,0.7-0.55,1.26-0.55c0.99,0,1.48,0.69,1.48,2.07v12.85h-12.14V144.14z"/>
	</g>
	<g>
		<path fill="#2F2F7F" d="M54.34,180.92c-0.12,0-0.36,0-0.6-0.02c-2.55-0.12-3.29-0.66-3.89-1.5c-0.8-1.1-1.38-2.33-2.07-3.53
			c-0.3-0.54-0.58-0.66-1.22-0.66l-0.4-0.02v2.93c0,1.62,0.2,1.77,1.71,1.95v0.74h-6.14v-0.74c1.52-0.16,1.71-0.32,1.71-1.95v-7.68
			c0-1.58-0.2-1.8-1.71-1.92v-0.74h5.82c1.78,0,2.81,0.2,3.63,0.76c0.8,0.54,1.34,1.42,1.34,2.67c0,1.79-1.18,2.73-2.51,3.25
			c0.3,0.6,1.08,1.91,1.68,2.83c0.7,1.1,1.14,1.65,1.52,2.09c0.46,0.52,0.68,0.68,1.26,0.88L54.34,180.92z M46.7,174.36
			c0.86,0,1.52-0.14,1.97-0.52c0.66-0.56,0.94-1.32,0.94-2.35c0-2.13-1.22-2.89-2.35-2.89c-0.54,0-0.8,0.08-0.92,0.2
			c-0.14,0.12-0.18,0.36-0.18,0.76v4.79H46.7z"/>
		<path fill="#2F2F7F" d="M62.77,178.84c-1.22,1.8-2.83,2.21-3.67,2.21c-2.69,0-4.21-1.98-4.21-4.37c0-1.4,0.66-2.79,1.5-3.61
			c0.9-0.9,2.03-1.41,3.13-1.41c1.97,0,3.33,1.62,3.31,3.27c0,0.34-0.02,0.68-0.26,0.74c-0.38,0.1-3.21,0.24-5.15,0.32
			c0.08,2.13,1.26,3.21,2.71,3.21c0.78,0,1.56-0.28,2.29-0.9L62.77,178.84z M59.12,172.48c-0.8,0-1.48,0.94-1.6,2.53
			c0.82-0.02,1.58-0.04,2.43-0.06c0.28-0.02,0.4-0.06,0.4-0.4C60.36,173.54,59.9,172.48,59.12,172.48z"/>
		<path fill="#2F2F7F" d="M67.26,177.67c-0.2,0.22-0.36,0.48-0.36,0.68c0,0.32,0.38,0.74,1.14,0.74c0.64,0,1.6,0,2.27,0
			c1.22,0,3.01,0.5,3.01,2.47c0,2.27-2.77,4.07-5.44,4.07c-2.63,0-3.81-1.28-3.81-2.39c0-0.48,0.18-0.8,0.6-1.1
			c0.54-0.38,1.06-0.72,1.5-1c-0.8-0.3-1.22-0.7-1.5-1.12c-0.24-0.32-0.36-0.82-0.32-1.1c0.94-0.4,1.79-1,2.17-1.46L67.26,177.67z
			 M68.22,177.87c-2.29,0-3.77-1.22-3.77-3.03c0-2.17,2.09-3.19,3.89-3.19c0.84,0,1.52,0.16,2.27,0.52c0.84,0,2.27-0.14,2.77-0.28
			l0.1,0.16c-0.12,0.36-0.38,1.02-0.74,1.24c-0.34,0-0.9-0.08-1.18-0.1c0.3,0.36,0.48,0.88,0.48,1.64
			C72.03,176.85,70.19,177.87,68.22,177.87z M68.46,181.2c-1.02,0-1.52,0.12-1.83,0.38c-0.34,0.28-0.56,0.68-0.56,1.1
			c0,1.06,1,1.89,2.73,1.89c1.54,0,2.51-0.72,2.51-1.8c0-0.74-0.48-1.22-1.1-1.38C69.66,181.24,69.2,181.2,68.46,181.2z
			 M68.24,172.42c-0.62,0-1.24,0.74-1.24,2.21c0,1.36,0.46,2.49,1.4,2.49c0.78,0,1.22-0.82,1.22-2.27
			C69.62,173.58,69.2,172.42,68.24,172.42z"/>
		<path fill="#2F2F7F" d="M74.11,180.8v-0.68c1.08-0.14,1.2-0.22,1.2-1.65v-3.91c0-1.34-0.1-1.42-1.04-1.54v-0.66
			c1.26-0.14,2.53-0.4,3.63-0.72c0,0.84,0,1.66,0,2.49v4.35c0,1.36,0.08,1.5,1.24,1.65v0.68H74.11z M76.46,170.41
			c-0.76,0-1.44-0.64-1.44-1.42c0-0.82,0.68-1.42,1.46-1.42c0.8,0,1.44,0.6,1.44,1.42C77.93,169.77,77.28,170.41,76.46,170.41z"/>
		<path fill="#2F2F7F" d="M85.04,171.66c2.83,0,4.61,2.13,4.61,4.53c0,3.23-2.33,4.85-4.69,4.85c-3.03,0-4.75-2.29-4.75-4.63
			C80.21,173.34,82.74,171.66,85.04,171.66z M84.8,172.46c-0.86,0-1.71,0.9-1.71,3.37c0,2.49,0.82,4.39,2.09,4.39
			c0.76,0,1.58-0.52,1.58-3.45C86.77,173.98,86.05,172.46,84.8,172.46z"/>
		<path fill="#2F2F7F" d="M96.64,180.8v-0.68c0.84-0.12,0.9-0.2,0.9-1.58v-3.43c0-1.42-0.7-1.86-1.4-1.86c-0.52,0-0.96,0.2-1.5,0.6
			v4.85c0,1.22,0.08,1.3,0.9,1.42v0.68h-4.65v-0.68c1.04-0.18,1.16-0.2,1.16-1.5v-4.17c0-1.2-0.16-1.26-1.04-1.44v-0.64
			c1.16-0.14,2.55-0.4,3.67-0.76c-0.02,0.28-0.04,0.98-0.04,1.44c0.4-0.28,0.82-0.58,1.28-0.86c0.6-0.36,0.98-0.52,1.56-0.52
			c1.62,0,2.65,1.18,2.65,3.23v3.79c0,1.24,0.12,1.3,1.08,1.44v0.68H96.64z"/>
		<path fill="#2F2F7F" d="M108.81,181.04c-0.54,0-0.98-0.18-1.24-0.42c-0.28-0.24-0.42-0.52-0.52-0.74
			c-0.76,0.5-1.74,1.16-2.13,1.16c-1.72,0-2.73-1.34-2.73-2.59c0-1.06,0.48-1.54,1.54-1.97c1.18-0.44,2.77-0.92,3.23-1.32v-0.88
			c0-1.04-0.38-1.62-1.24-1.62c-0.34,0-0.62,0.16-0.8,0.4c-0.24,0.32-0.32,0.72-0.48,1.32c-0.14,0.54-0.46,0.68-0.86,0.68
			c-0.52,0-1.18-0.48-1.18-1.04c0-0.36,0.24-0.62,0.7-0.94c0.9-0.6,2.09-1.18,3.21-1.42c0.8,0,1.48,0.18,2.07,0.58
			c0.86,0.6,1.1,1.44,1.1,2.47v3.47c0,0.96,0.32,1.2,0.64,1.2c0.2,0,0.4-0.06,0.62-0.16l0.22,0.68L108.81,181.04z M106.97,175.99
			c-0.36,0.2-0.72,0.4-1.12,0.62c-0.62,0.32-0.98,0.68-0.98,1.36c0,1.12,0.78,1.52,1.22,1.52c0.28,0,0.56-0.02,0.88-0.32
			C106.97,178.24,106.97,176.93,106.97,175.99z"/>
		<path fill="#2F2F7F" d="M111.42,180.8v-0.68c1.14-0.18,1.18-0.28,1.18-1.54v-9.13c0-1.04-0.12-1.16-1.16-1.38v-0.64
			c1.38-0.14,2.79-0.38,3.75-0.68c0,0.9,0,1.8,0,2.73v9.11c0,1.32,0.06,1.4,1.2,1.54v0.68H111.42z"/>
		<path fill="#2F2F7F" d="M134.46,177.35c-0.28,1-0.8,2.53-1.12,3.23c-0.52,0.12-2.17,0.52-3.69,0.52c-5.4,0-7.62-3.47-7.62-6.66
			c0-4.15,3.17-6.96,7.98-6.96c1.74,0,3.29,0.42,3.79,0.48c0.1,0.94,0.24,2.43,0.38,3.31l-0.8,0.14c-0.42-1.56-1.02-2.31-2.09-2.73
			c-0.48-0.2-1.2-0.28-1.75-0.28c-2.91,0-4.37,2.43-4.37,5.58c0,3.67,1.89,6.16,4.63,6.16c1.68,0,2.81-0.88,3.89-3.09L134.46,177.35
			z"/>
		<path fill="#2F2F7F" d="M140.74,171.66c2.83,0,4.61,2.13,4.61,4.53c0,3.23-2.33,4.85-4.69,4.85c-3.03,0-4.75-2.29-4.75-4.63
			C135.9,173.34,138.43,171.66,140.74,171.66z M140.5,172.46c-0.86,0-1.71,0.9-1.71,3.37c0,2.49,0.82,4.39,2.09,4.39
			c0.76,0,1.58-0.52,1.58-3.45C142.46,173.98,141.74,172.46,140.5,172.46z"/>
		<path fill="#2F2F7F" d="M152.33,180.8v-0.68c0.84-0.12,0.9-0.2,0.9-1.58v-3.43c0-1.42-0.7-1.86-1.4-1.86c-0.52,0-0.96,0.2-1.5,0.6
			v4.85c0,1.22,0.08,1.3,0.9,1.42v0.68h-4.65v-0.68c1.04-0.18,1.16-0.2,1.16-1.5v-4.17c0-1.2-0.16-1.26-1.04-1.44v-0.64
			c1.16-0.14,2.55-0.4,3.67-0.76c-0.02,0.28-0.04,0.98-0.04,1.44c0.4-0.28,0.82-0.58,1.28-0.86c0.6-0.36,0.98-0.52,1.56-0.52
			c1.62,0,2.65,1.18,2.65,3.23v3.79c0,1.24,0.12,1.3,1.08,1.44v0.68H152.33z"/>
		<path fill="#2F2F7F" d="M162.05,180.82c-0.34,0.16-0.66,0.22-0.8,0.22c-1.54,0-2.47-0.72-2.47-2.55v-5.6h-1.28l-0.12-0.24
			l0.58-0.76h0.82v-1.67c0.68-0.48,1.66-1.12,2.37-1.6l0.26,0.16c-0.02,0.54-0.06,1.6-0.04,3.11h2.01c0.18,0.2,0.1,0.82-0.16,1
			h-1.84v4.91c0,1.56,0.64,1.74,1.02,1.74c0.34,0,0.6-0.06,0.96-0.2l0.2,0.72L162.05,180.82z"/>
		<path fill="#2F2F7F" d="M171.02,181.04c-0.54,0-0.98-0.18-1.24-0.42c-0.28-0.24-0.42-0.52-0.52-0.74
			c-0.76,0.5-1.74,1.16-2.13,1.16c-1.72,0-2.73-1.34-2.73-2.59c0-1.06,0.48-1.54,1.54-1.97c1.18-0.44,2.77-0.92,3.23-1.32v-0.88
			c0-1.04-0.38-1.62-1.24-1.62c-0.34,0-0.62,0.16-0.8,0.4c-0.24,0.32-0.32,0.72-0.48,1.32c-0.14,0.54-0.46,0.68-0.86,0.68
			c-0.52,0-1.18-0.48-1.18-1.04c0-0.36,0.24-0.62,0.7-0.94c0.9-0.6,2.09-1.18,3.21-1.42c0.8,0,1.48,0.18,2.07,0.58
			c0.86,0.6,1.1,1.44,1.1,2.47v3.47c0,0.96,0.32,1.2,0.64,1.2c0.2,0,0.4-0.06,0.62-0.16l0.22,0.68L171.02,181.04z M169.17,175.99
			c-0.36,0.2-0.72,0.4-1.12,0.62c-0.62,0.32-0.98,0.68-0.98,1.36c0,1.12,0.78,1.52,1.22,1.52c0.28,0,0.56-0.02,0.88-0.32
			C169.17,178.24,169.17,176.93,169.17,175.99z"/>
		<path fill="#2F2F7F" d="M173.8,180.8v-0.68c1.08-0.14,1.2-0.22,1.2-1.65v-3.91c0-1.34-0.1-1.42-1.04-1.54v-0.66
			c1.26-0.14,2.53-0.4,3.63-0.72c0,0.84,0,1.66,0,2.49v4.35c0,1.36,0.08,1.5,1.24,1.65v0.68H173.8z M176.15,170.41
			c-0.76,0-1.44-0.64-1.44-1.42c0-0.82,0.68-1.42,1.46-1.42c0.8,0,1.44,0.6,1.44,1.42C177.61,169.77,176.97,170.41,176.15,170.41z"
			/>
		<path fill="#2F2F7F" d="M185.52,180.8v-0.68c0.84-0.12,0.9-0.2,0.9-1.58v-3.43c0-1.42-0.7-1.86-1.4-1.86c-0.52,0-0.96,0.2-1.5,0.6
			v4.85c0,1.22,0.08,1.3,0.9,1.42v0.68h-4.65v-0.68c1.04-0.18,1.16-0.2,1.16-1.5v-4.17c0-1.2-0.16-1.26-1.04-1.44v-0.64
			c1.16-0.14,2.55-0.4,3.67-0.76c-0.02,0.28-0.04,0.98-0.04,1.44c0.4-0.28,0.82-0.58,1.28-0.86c0.6-0.36,0.98-0.52,1.56-0.52
			c1.62,0,2.65,1.18,2.65,3.23v3.79c0,1.24,0.12,1.3,1.08,1.44v0.68H185.52z"/>
		<path fill="#2F2F7F" d="M199.19,178.84c-1.22,1.8-2.83,2.21-3.67,2.21c-2.69,0-4.21-1.98-4.21-4.37c0-1.4,0.66-2.79,1.5-3.61
			c0.9-0.9,2.03-1.41,3.13-1.41c1.97,0,3.33,1.62,3.31,3.27c0,0.34-0.02,0.68-0.26,0.74c-0.38,0.1-3.21,0.24-5.16,0.32
			c0.08,2.13,1.26,3.21,2.71,3.21c0.78,0,1.56-0.28,2.29-0.9L199.19,178.84z M195.54,172.48c-0.8,0-1.48,0.94-1.6,2.53
			c0.82-0.02,1.58-0.04,2.43-0.06c0.28-0.02,0.4-0.06,0.4-0.4C196.79,173.54,196.33,172.48,195.54,172.48z"/>
		<path fill="#2F2F7F" d="M205.75,180.8h-5.29v-0.68c1.06-0.12,1.16-0.22,1.16-1.42v-4.39c0-1-0.08-1.1-1.02-1.3v-0.62
			c1.24-0.14,2.37-0.38,3.61-0.76c0,0.66,0,1.52,0,2.17c0.9-1.38,1.62-2.13,2.45-2.13c0.74,0,1.3,0.5,1.3,1.2
			c0,0.98-0.7,1.54-1.02,1.7c-0.28,0.12-0.48,0.02-0.62-0.1c-0.34-0.28-0.6-0.6-0.94-0.6c-0.3,0-0.8,0.26-1.16,1.02v3.81
			c0,1.2,0.14,1.26,1.54,1.42V180.8z"/>
		<path fill="#2F2F7F" d="M223.88,177.27c-0.16,0.86-0.72,2.99-0.9,3.53h-9.95v-0.74c1.77-0.12,1.93-0.26,1.93-1.95v-7.64
			c0-1.68-0.2-1.85-1.71-1.97v-0.74h6.26v0.74c-1.56,0.14-1.76,0.28-1.76,1.97v7.78c0,1.1,0.04,1.6,1.14,1.62
			c0.04,0.02,0.96,0.02,1.04,0.02c1.14,0,1.44-0.24,1.93-0.78c0.38-0.4,0.9-1.26,1.26-2.09L223.88,177.27z"/>
		<path fill="#2F2F7F" d="M224.92,180.8v-0.68c1.08-0.14,1.2-0.22,1.2-1.65v-3.91c0-1.34-0.1-1.42-1.04-1.54v-0.66
			c1.26-0.14,2.53-0.4,3.63-0.72c0,0.84,0,1.66,0,2.49v4.35c0,1.36,0.08,1.5,1.24,1.65v0.68H224.92z M227.27,170.41
			c-0.76,0-1.44-0.64-1.44-1.42c0-0.82,0.68-1.42,1.47-1.42c0.8,0,1.44,0.6,1.44,1.42C228.73,169.77,228.09,170.41,227.27,170.41z"
			/>
		<path fill="#2F2F7F" d="M236.63,180.8v-0.68c0.84-0.12,0.9-0.2,0.9-1.58v-3.43c0-1.42-0.7-1.86-1.41-1.86
			c-0.52,0-0.96,0.2-1.5,0.6v4.85c0,1.22,0.08,1.3,0.9,1.42v0.68h-4.65v-0.68c1.04-0.18,1.16-0.2,1.16-1.5v-4.17
			c0-1.2-0.16-1.26-1.04-1.44v-0.64c1.16-0.14,2.55-0.4,3.67-0.76c-0.02,0.28-0.04,0.98-0.04,1.44c0.4-0.28,0.82-0.58,1.28-0.86
			c0.6-0.36,0.98-0.52,1.56-0.52c1.62,0,2.65,1.18,2.65,3.23v3.79c0,1.24,0.12,1.3,1.08,1.44v0.68H236.63z"/>
		<path fill="#2F2F7F" d="M250.31,178.84c-1.22,1.8-2.83,2.21-3.67,2.21c-2.69,0-4.21-1.98-4.21-4.37c0-1.4,0.66-2.79,1.5-3.61
			c0.9-0.9,2.03-1.41,3.13-1.41c1.97,0,3.33,1.62,3.31,3.27c0,0.34-0.02,0.68-0.26,0.74c-0.38,0.1-3.21,0.24-5.16,0.32
			c0.08,2.13,1.26,3.21,2.71,3.21c0.78,0,1.56-0.28,2.29-0.9L250.31,178.84z M246.66,172.48c-0.8,0-1.48,0.94-1.6,2.53
			c0.82-0.02,1.58-0.04,2.43-0.06c0.28-0.02,0.4-0.06,0.4-0.4C247.9,173.54,247.44,172.48,246.66,172.48z"/>
		<path fill="#2F2F7F" d="M257.21,174.5c-0.52-1.4-1.2-2.04-2.15-2.04c-0.56,0-1.06,0.4-1.06,1.06c0,0.7,0.5,1.08,1.54,1.54
			c1.62,0.72,2.73,1.4,2.73,2.99c0,2.01-1.91,2.99-3.65,2.99c-1.04,0-2.13-0.4-2.55-0.6c-0.08-0.46-0.26-1.84-0.32-2.55l0.66-0.12
			c0.42,1.26,1.24,2.45,2.55,2.45c0.76,0,1.14-0.46,1.14-1.04c0-0.62-0.3-1.08-1.54-1.68c-1.32-0.64-2.61-1.34-2.61-3.01
			c0-1.59,1.3-2.83,3.43-2.83c0.96,0,1.7,0.2,2.17,0.3c0.06,0.54,0.24,1.83,0.32,2.37L257.21,174.5z"/>
	</g>
</g>
</svg>
